<svg xmlns="http://www.w3.org/2000/svg" viewBox="0 0 354.69 305.13"><defs><style>.cls-1{fill:#a11318;}.cls-2{fill:#ed1c24;}.cls-3{fill:#0fe;}.cls-4{fill:#00b0a4;}.cls-5{fill:#24732f;}.cls-6{fill:#39b54a;}.cls-7{fill:#05008c;}.cls-8{fill:none;}.cls-9{fill:#0900ff;}</style></defs><title>Asset 1</title><g id="Layer_2" data-name="Layer 2"><g id="Layer_1-2" data-name="Layer 1"><polygon class="cls-1" points="103.37 0.09 103.36 4.08 77.32 4 77.14 66.21 14.23 66.03 14.15 92.09 10.14 92.08 10.23 62.03 73.14 62.21 73.32 0 103.37 0.09"/><rect class="cls-1" x="134.41" y="35.17" width="3.99" height="58.43" transform="matrix(0, -1, 1, 0, 71.68, 200.64)"/><rect class="cls-1" x="45.38" y="123.83" width="59.15" height="4.01" transform="translate(-51.09 200.43) rotate(-89.84)"/><polygon class="cls-2" points="165.62 66.47 165.54 92.53 103.1 92.35 102.92 155.49 76.88 155.41 77.05 96.26 73.04 96.25 73.05 92.26 14.15 92.09 14.23 66.03 77.14 66.21 77.32 4 103.36 4.08 103.19 62.3 107.2 62.31 107.19 66.3 165.62 66.47"/><polygon class="cls-3" points="325.12 145.55 309.6 165.1 267.92 132.03 234.48 174.19 218.82 161.77 251.85 120.12 247.45 116.63 247.85 116.12 210.25 86.29 225.77 66.74 263.37 96.57 267.77 100.06 300.71 58.52 316.38 70.95 283.83 111.97 288.23 115.46 287.83 115.97 325.12 145.55"/><rect class="cls-4" x="206.56" y="136.39" width="53.16" height="5.62" transform="translate(-20.79 235.37) rotate(-51.58)"/><polygon class="cls-4" points="316.78 70.44 316.38 70.95 300.71 58.52 267.77 100.06 263.37 96.57 263.77 96.06 296.71 54.52 316.78 70.44"/><polygon class="cls-4" points="263.77 96.06 263.37 96.57 225.77 66.74 210.25 86.29 205.85 82.8 221.77 62.74 263.77 96.06"/><polygon class="cls-4" points="325.52 145.04 325.12 145.55 287.83 115.97 288.23 115.46 325.52 145.04"/><polygon class="cls-5" points="354.69 232.19 354.69 236.19 203.89 236.19 203.89 262.3 199.89 262.3 199.89 232.19 354.69 232.19"/><rect class="cls-6" x="203.89" y="236.19" width="150.8" height="26.11"/><path class="cls-5" d="M288.91,197.88a15.5,15.5,0,0,0-21.58,21.51,15.49,15.49,0,1,1,21.58-21.51Z"/><path class="cls-6" d="M291.61,206.64a15.49,15.49,0,0,1-24.28,12.75,15.49,15.49,0,0,1,21.58-21.51A15.49,15.49,0,0,1,291.61,206.64Z"/><path class="cls-5" d="M288.91,280.88a15.5,15.5,0,0,0-21.58,21.51,15.49,15.49,0,1,1,21.58-21.51Z"/><path class="cls-6" d="M291.61,289.64a15.49,15.49,0,0,1-24.28,12.75,15.49,15.49,0,0,1,21.58-21.51A15.49,15.49,0,0,1,291.61,289.64Z"/><polygon class="cls-7" points="4 264.79 8.53 289.84 5.36 290.41 0 260.79 152.32 233.22 153.15 237.79 4 264.79"/><polygon class="cls-8" points="165.62 66.47 165.54 92.53 103.1 92.35 102.92 155.49 76.88 155.41 77.05 96.26 73.04 96.25 73.05 92.26 14.15 92.09 14.23 66.03 77.14 66.21 77.32 4 103.36 4.08 103.19 62.3 107.2 62.31 107.19 66.3 165.62 66.47"/><rect class="cls-9" x="5.05" y="251.09" width="151.57" height="25.46" transform="translate(-45.7 18.62) rotate(-10.26)"/><rect class="cls-8" x="203.89" y="236.19" width="150.8" height="26.11"/><path class="cls-8" d="M291.61,206.64a15.49,15.49,0,0,1-24.28,12.75,15.49,15.49,0,0,1,21.58-21.51A15.49,15.49,0,0,1,291.61,206.64Z"/><path class="cls-8" d="M291.61,289.64a15.49,15.49,0,0,1-24.28,12.75,15.49,15.49,0,0,1,21.58-21.51A15.49,15.49,0,0,1,291.61,289.64Z"/></g></g></svg>