<svg xmlns="http://www.w3.org/2000/svg" viewBox="0 0 546.76 546.76"><defs><style>.cls-1{fill:#b5f098;}.cls-2{fill:#9641ff;}.cls-3{isolation:isolate;}</style></defs><title>ChuckNorrisJokes</title><g id="Layer_2" data-name="Layer 2"><g id="Layer_1-2" data-name="Layer 1"><rect class="cls-1" width="546.76" height="546.76" rx="27.34"/><path class="cls-2" d="M256.58,546.76H506.85c-32.3-9.64-61.58-18.33-90.85-27.12-9.56-2.87-16.53-7.86-19.51-18.46-1.68-5.9-6.26-11.45-10.71-16-4.91-5-6.56-10.26-2.44-15.4,4-5,9.66-8.58,14.35-12.57-.3-5-.7-11.27-1-17.57-.19-3.54.76-7.56-.58-10.59-4.1-9.17,5.18-18.72-1.22-27.95-.68-1,3.29-5.95,5.87-8.18,3-2.59,6.83-4.13,10.3-6.14,49.52-28.74,79-68.67,75.08-128.75C483.63,220,460.38,188,422.92,180.15c-22.26-4.66-45.53-4.74-68.4-6-6.64-.35-10.56-1.73-14-7.64-7.88-13.5-16.92-26.29-24.87-39.75C304.62,108.17,288.21,99,267,98.52c-10.16-.23-20.39,1-30.52,2.17-25.8,3-42.78,17.77-51.78,41.29-4.64,12.15-7.09,25.13-10.4,37.76-1.07,4.06-1.73,8.21-2.54,11.82-15.1-1.64-28.82-3.7-42.61-4.48q-21.31-1.17-42.71-.3C52.14,188,32.91,206.86,34,239.17c.93,30.05,10.14,58,32.08,79,20.71,19.78,43.61,37.46,66.74,54.47,14.38,10.57,27,20.43,24.59,40.56-.38,3.06,1.38,6.35,1.87,9.57,4.94,32.38,29.34,50.45,55.23,61.27,18.66,7.77,42.69,3,63-5.76,43.38-18.75,64.63-52.24,65.93-99.09.21-7.83,3.06-15.59,5.17-25.49,4.82,3.95,6.91,5.69,9.07,7.42.5-.45,1-.86,1.51-1.32-2.67-5.69-5.35-11.37-7.81-16.61l14.27-11.47c2.64,1.58,6,5.11,7.91,4.46,6.76-2.27,10.47.86,10.95,6.27.39,4.5-1.73,9.5-3.68,13.86-2.78,6.23-8.51,11.85-9.25,18.18-1.8,15.16-9.94,23.3-23.53,26.3v32.7c2.76,1.27,6.38,1.95,8.41,4.1,3.38,3.61,5.76,8.17,8.54,12.34l-13.13,1.47C332.34,493.37,294,518.66,256.58,546.76Zm20.78-131h0l-2.67.3-2.67.3c-1.77.2-3.55.4-5.32.56h0c-1.32.14-2.63.26-3.95.34-1.69.12-3.37.21-5.05.23h-.79c-1.51,0-3,0-4.53-.08h-.17l-1.09-.07h-.45l-.51,0-.43,0h-.13c-.77-.07-1.56-.17-2.34-.28l-.45-.07c-.58-.09-1.16-.19-1.73-.3a45.53,45.53,0,0,1-7.77-2.19c-.74-.27-1.49-.58-2.23-.92h0c-1-.44-2-.92-3-1.46a9.59,9.59,0,0,0-1.18-.52h0c-.42-.13-.85-.24-1.28-.33a25.78,25.78,0,0,0-8.13.22l-3.34.51-.64.1-1.28.17c-5.73.71-11.42,2.29-17.11,3.1a47.46,47.46,0,0,1-5.71.49q-.69,0-1.38,0a6.9,6.9,0,0,1-1-.12,4.37,4.37,0,0,1-.5-.09,7.85,7.85,0,0,1-1-.22l-.46-.15a8.39,8.39,0,0,1-3.82-2.59,6.64,6.64,0,0,1-.56-.75,3.45,3.45,0,0,1-.25-.41,6.37,6.37,0,0,1-.45-.86,13,13,0,0,1-.93-5.94,18.47,18.47,0,0,1,.87-4.89c.06-.18.13-.35.19-.53a10.69,10.69,0,0,1,2.59-3.94c.24-.24.5-.47.77-.7s.56-.43.86-.63h0c.3-.21.62-.4.94-.58a18.66,18.66,0,0,1,4.51-1.72c5.72-1.5,11.36-3.35,17.06-4.93,1.56-.45,3.13-.87,4.71-1.25l.55-.13,1.65-.39,1.12-.24c.46-.1.94-.19,1.41-.27s.94-.15,1.42-.21h0a18.32,18.32,0,0,1,4.25-.13,11.46,11.46,0,0,1,1.43.21c12.78,2.7,26,4.72,37.81,9.93a15,15,0,0,1,4.38,3.1c.34.33.66.68,1,1a31.08,31.08,0,0,1,2.33,2.88c2.59,3.45,4.87,7.43,7.52,10.67Zm55.3-77.67c-2.1,2.35-2.59,6.61-2.81,10.05C328.39,369.39,318.77,386,302,399c-6.39,4.93-10.53,3.93-15.17-2.67-6.31-9-12.67-18.47-21-25.4a62.4,62.4,0,0,0-26.33-13c-11.69-2.41-16.13-13.51-25.89-17.35-4.15-1.63-8.7-2.28-13.06-3.36-.57,1.2-1.13,2.43-1.73,3.64,9.22,8.88,2.74,15.88-3.27,20.27-13.64,10-23.41,22.24-31,38.77-1.85-5.4-5.3-10.8-5.3-16.2,0-30.49.19-61,1.6-91.48.66-14.12,9-19.12,25.36-17.21-4.12,9.49-20.53,11.5-15.32,25.35,5.77-3.07,11.59-7.11,18-9.36,11.53-4.06,15.54-.82,15.66,11.22v10.66l3.25,1.34c1.9-4.66,3.88-9.29,5.68-14,2.38-6.18,4.32-12.52,7-18.59a119.69,119.69,0,0,1,8.84-17.51c1.34-2.09,6.66-4.4,7.31-3.75,8,7.85,15.38,16.25,24.46,26.16H295.7l-14.93-14.83c.82-1.34,1.61-2.66,2.4-4l19.46,4.85c.54-3.61,1.1-7.36,2.22-14.93,11.58,14.3,30.57,16,34.84,35.28,3.65,16.33,5.25,31.47-7,45.17Z"/><g class="cls-3"><g class="cls-3"><path class="cls-2" d="M58.52,153c.07.53-.51,1.09-1.74,1.69a12.45,12.45,0,0,1-2.57,1l-9.67,2.22c-.15-.75-.3-1.53-.46-2.34-.1-.38-.41-.53-.93-.46-.24,0-.88.16-1.92.4a2.5,2.5,0,0,0,0-1c-.1-.72-.27-1.82-.51-3.32s-.42-2.64-.53-3.42-.25-1.17-.44-1.15a8.18,8.18,0,0,0-1,.21c-.42.1-.76.17-1,.2l0,.14a35.06,35.06,0,0,0,1,4.56,35.46,35.46,0,0,1,1,4.56q-.56.22-6,1.66L24,160.43a8.12,8.12,0,0,1-.35-2.65.64.64,0,0,0-.6-.13,6.94,6.94,0,0,0-1,.24,6.94,6.94,0,0,1-1,.24l-.8-6.08q-2.76-21-2.52-31.26,0-.95,2.22-1.38c1.05-.18,2.07-.34,3.07-.48a35.92,35.92,0,0,1,4.66-1.05l4.73-.62.1,1.37a1.93,1.93,0,0,0,.46,1.25l1.22-.16c.9-.12,1.38,0,1.42.32q1.48,10.14,1.39,9.43c.22,1.67.57,2.47,1,2.41s.63-.18.61-.37a1.41,1.41,0,0,0-.3-.62q-.24-1.78-.78-5.36c-.36-2.37-.62-4.14-.77-5.28-.22-1.67.24-2.63,1.37-2.87l12-2.45.36,2.71a8.11,8.11,0,0,0,2.64-.34ZM54.41,151l-5.13-34.55c-.53,0-1.18.08-1.94.18q-8.81,1.15-9.66,2.36,2,13.14,2,13.06a2.81,2.81,0,0,1,0,.58l-3.72.49a12.29,12.29,0,0,1-2-.17l-2.5-14.59-2.58.33-10.12,2.21,3.06,35.92,3.67-.85L33,153.86l.93-.13a2.56,2.56,0,0,0,1.59-.64l-2-8.47a.69.69,0,0,1,.12-.75c4.1-.93,6-1.37,5.79-1.34a1.47,1.47,0,0,1,1,.09l1.95,11.53,1.15-.15A40.1,40.1,0,0,0,54.41,151Zm-28.28-15.2-.64.08a4.91,4.91,0,0,0-.92-1.4c-.83.3-1.27.7-1.33,1.19s-.1,1-.12,1.55a9.61,9.61,0,0,1-1.86-4.13,1,1,0,0,1,.91.83,2.14,2.14,0,0,0,.49.95,12.69,12.69,0,0,1,1.68-1.09.3.3,0,0,0,0-.22,1.59,1.59,0,0,0-.17-.49,1.51,1.51,0,0,1-.17-.42,1,1,0,0,1,.26-.83A38.68,38.68,0,0,1,26.13,135.84Zm3.56-1.71a2.21,2.21,0,0,1-1.27-.85,2.34,2.34,0,0,0-1,1,7.16,7.16,0,0,1-.77,1l-.19-1.43a8.28,8.28,0,0,1,.27-1.56c.19-.9.31-1.42.34-1.57A6.31,6.31,0,0,1,29.69,134.13ZM28,132.76a1.69,1.69,0,0,0-.44-.6,3.4,3.4,0,0,0,0,1A1.59,1.59,0,0,0,28,132.76Zm12.39,3.46A15.71,15.71,0,0,1,38.69,140c-.14,0-.23-.09-.26-.33a2.71,2.71,0,0,1,.39-1.44,2.85,2.85,0,0,0-2-.39c-.15,0-.29.24-.43.64a1.53,1.53,0,0,1-.48.79q-.16-.19-.42-.45a5.68,5.68,0,0,0,.73-1.88,4.45,4.45,0,0,1,.94-2c.15,0,.24.16.27.4a2.72,2.72,0,0,1-.2.9,9.53,9.53,0,0,0-.29.91c.45,0,1.09.13,1.93.26.24-.42.6-1,1.09-1.67A2.38,2.38,0,0,1,40.37,136.22Zm3.24-9.67a.81.81,0,0,1-.63-.64,7.27,7.27,0,0,0-.23-.92.23.23,0,0,0-.23-.12,5.71,5.71,0,0,0-1.93.84c.12.86.15,1.15.12.86a1.71,1.71,0,0,1,0,.51l-.79.1a20.39,20.39,0,0,0-.54-4.15,1.7,1.7,0,0,1,.76-.24l0,.28a11,11,0,0,0,.37,1.7,10.73,10.73,0,0,0,1.82-.53,3.09,3.09,0,0,0,.07-1.17.84.84,0,0,1,.46-.94,26.11,26.11,0,0,1,.53,2.92Zm-.42,10.61a6.64,6.64,0,0,1,.1,1.88,11.1,11.1,0,0,0,0,2l-.64.08a2.25,2.25,0,0,0,0-.58,1.15,1.15,0,0,0-1.45-1.12,7.42,7.42,0,0,0-.89,1c-.33-.25-.49-.39-.5-.44,0-.29.42-.82,1.36-1.6a12.57,12.57,0,0,1,2-1.47Zm-.74,1a5.84,5.84,0,0,1-.71.75l.67.06A2.63,2.63,0,0,1,42.45,138.13Zm5.33-12.56-.06.08c-.1,0-.34-.15-.72-.49a1.49,1.49,0,0,0-1.22-.42c-.15,0-.38.24-.71.67a5.24,5.24,0,0,0-.7.82l-.1-.78c-.07-.53.45-1.76,1.55-3.7a7.33,7.33,0,0,1,1,1.5A6.19,6.19,0,0,1,47.7,125Zm-1.45-1.63a2.24,2.24,0,0,1-.46-.74l-.38,1A3,3,0,0,0,46.33,123.94Z"/></g><g class="cls-3"><path class="cls-2" d="M99.91,146.14l-12.43,5.13A17.61,17.61,0,0,0,84,152.53a4.29,4.29,0,0,1-.1-1.33,9.92,9.92,0,0,0,0-1.35,5.15,5.15,0,0,0-.18-.85c-1.86.59-2.81,1.71-2.83,3.36l-13.92,1c.14-.36.38-1.14.71-2.35a7.37,7.37,0,0,1-1.2,0,8,8,0,0,0-1.28,0,1.7,1.7,0,0,0-1,.42l-.11-.86Q64,150.15,68.44,131q4.07-17.2,4.91-20.74,5.18-1.55,9.23-2.89c.55,2,1,3,1.19,3a13.93,13.93,0,0,0,1.66-.66Zm-4.31-2.85L82,108.76q-2.17.66-4.35,1.23c-2.24.69-3.46,1.21-3.65,1.57,0,.11-.65,2.81-1.85,8.11Q69.88,129.8,65.33,150l11.55-.72a17.75,17.75,0,0,0,.64-4,15.57,15.57,0,0,1,.82-4.29,3.45,3.45,0,0,1,2.9-2.28.34.34,0,0,1,.39.17l.21,1.64.27,8.12ZM73.67,142l0,.8a1.07,1.07,0,0,1-.73-.59c-.19-.34-.38-.67-.57-1a6.52,6.52,0,0,0-1.65,1.23,1.11,1.11,0,0,0,.07.58,1.42,1.42,0,0,1,.21.48.54.54,0,0,1-.36.56,30.21,30.21,0,0,1-1.55-4l0-.22a2.16,2.16,0,0,1,.86,1c.27.52.42.78.47.77,1.38-.18,1.88-1.19,1.49-3A17.94,17.94,0,0,1,73.67,142Zm3.87-1a2.41,2.41,0,0,1-1.34-.77q-.57.66-1.77,2l-.33-1.41a18.49,18.49,0,0,1,1.09-3.28Zm1.62-18.7c-.34,0-.6-.14-.8-.55a9.24,9.24,0,0,1-.57-1A11.4,11.4,0,0,0,76,122.14a1.58,1.58,0,0,1,.34.9v.51q-.37,0-1.08-1.53a8.7,8.7,0,0,1-.77-2,.55.55,0,0,1,.28-.62,9.13,9.13,0,0,1,1,1.77A8.2,8.2,0,0,0,77.62,120c-.23-.65-.34-.91-.32-.76a1.23,1.23,0,0,1,.45-1,13.85,13.85,0,0,0,.74,2A9.08,9.08,0,0,1,79.16,122.31Zm-3.45,17.48-.39-.75-.21.1.38.68Zm5.1-7.15c-.14.07-1.1.29-2.9.68l-.08-.65a59.29,59.29,0,0,1,1.33-5.92Q80.32,130.53,80.81,132.64ZM83,120.2l-.15.53a3,3,0,0,1-.64-.47c-.33-.27-.54-.4-.64-.39a1.52,1.52,0,0,0-1,.68l-.8,1.09a14.72,14.72,0,0,1,.58-4.44,3.57,3.57,0,0,1,1.41,1.34C82.2,119.07,82.61,119.62,83,120.2Zm-1.86-.85a1.11,1.11,0,0,0-.46-.74,2.59,2.59,0,0,1,0,.47,2,2,0,0,0,0,.48Zm4.72,13.21a16.35,16.35,0,0,1-.74,4.32c-.16-.08-.25-.26-.29-.55a3.9,3.9,0,0,1,0-.62,3.8,3.8,0,0,0,0-.61,6.31,6.31,0,0,0-1.82,0c-.24,0-.4.27-.49.72a2.39,2.39,0,0,1-.26.83l-.54-.29.69-4.17a3.3,3.3,0,0,1,.69.27c0,.4-.16,1-.34,1.87a14.24,14.24,0,0,0,2.17-.07c.06-.3.14-.61.24-.94A1.11,1.11,0,0,1,85.89,132.56Zm3.74,4.6-.65.08c-.08-.27-.19-.7-.31-1.26a4.22,4.22,0,0,0-1.17-.07c-.19,0-.44.33-.76.9l-.64.09c0-.38.35-1.12,1.2-2.2A11,11,0,0,1,88.79,133c.19,0,.29.05.32.25Zm-1.12-1.82-.11-.86-.56.73Z"/></g></g><g class="cls-3"><g class="cls-3"><path class="cls-2" d="M125.91,99.29q.11.78-1.74,1.68a12.6,12.6,0,0,1-2.56,1l-9.68,2.23-.46-2.35c-.1-.37-.41-.53-.93-.46-.24,0-.88.17-1.91.4a2.53,2.53,0,0,0,0-1c-.1-.71-.27-1.82-.51-3.32s-.42-2.64-.53-3.42-.25-1.17-.44-1.14-.57.1-1,.2-.75.17-1,.2l0,.15a35,35,0,0,0,1,4.55,35.46,35.46,0,0,1,1,4.56q-.55.22-6,1.66l-9.93,2.55A8.26,8.26,0,0,1,91,104.1a.65.65,0,0,0-.6-.14,7.31,7.31,0,0,0-1,.24,7.25,7.25,0,0,1-1,.25l-.8-6.08q-2.76-21-2.52-31.26c0-.63.76-1.09,2.22-1.39,1-.18,2.07-.34,3.07-.47a35.64,35.64,0,0,1,4.67-1l4.72-.63.11,1.37a1.94,1.94,0,0,0,.45,1.25l1.22-.16c.9-.12,1.38,0,1.42.33q1.49,10.14,1.39,9.42c.22,1.67.57,2.47,1,2.41s.64-.18.61-.37a1.22,1.22,0,0,0-.3-.62q-.24-1.78-.78-5.35c-.36-2.38-.61-4.14-.77-5.29-.22-1.67.24-2.62,1.37-2.87l12-2.45.36,2.72a8.52,8.52,0,0,0,2.65-.35Zm-4.11-1.94L116.67,62.8c-.53,0-1.18.08-1.94.18-5.87.78-9.09,1.56-9.66,2.37q2,13.13,2,13.05a2.81,2.81,0,0,1,0,.58l-3.72.49a10.2,10.2,0,0,1-2-.17l-2.5-14.59-2.58.34-10.12,2.2,3.06,35.92c1-.23,2.26-.52,3.67-.85l7.51-2.15.93-.12a2.56,2.56,0,0,0,1.59-.65l-2-8.47a.7.7,0,0,1,.12-.74q6.15-1.39,5.79-1.35a1.44,1.44,0,0,1,1,.09l2,11.54,1.15-.15A40.47,40.47,0,0,0,121.8,97.35ZM93.52,82.15l-.64.09A4.86,4.86,0,0,0,92,80.83c-.84.3-1.28.7-1.34,1.19s-.1,1-.12,1.55a9.57,9.57,0,0,1-1.86-4.12,1,1,0,0,1,.91.82,2.26,2.26,0,0,0,.49,1,12.54,12.54,0,0,1,1.68-1.1.3.3,0,0,0,0-.22,1.43,1.43,0,0,0-.17-.49,1.61,1.61,0,0,1-.17-.41,1,1,0,0,1,.26-.84A39.75,39.75,0,0,1,93.52,82.15Zm3.56-1.7a2.3,2.3,0,0,1-1.27-.85c-.28.08-.62.42-1,1A6.74,6.74,0,0,1,94,81.65l-.19-1.43a8.19,8.19,0,0,1,.27-1.57c.19-.9.31-1.42.34-1.57A6.34,6.34,0,0,1,97.08,80.45Zm-1.71-1.38a1.89,1.89,0,0,0-.44-.6,3.41,3.41,0,0,0,0,1A1.32,1.32,0,0,0,95.37,79.07Zm12.4,3.46a16.22,16.22,0,0,1-1.69,3.79c-.14,0-.23-.09-.26-.33a2.86,2.86,0,0,1,.39-1.43,2.75,2.75,0,0,0-2-.39c-.15,0-.29.23-.43.64a1.57,1.57,0,0,1-.48.79l-.42-.46a5.68,5.68,0,0,0,.73-1.88,4.56,4.56,0,0,1,.94-2c.15,0,.24.17.28.4a3.14,3.14,0,0,1-.21.91,6.2,6.2,0,0,0-.28.91c.44,0,1.08.12,1.92.25.24-.42.6-1,1.09-1.67A2.72,2.72,0,0,1,107.77,82.53ZM111,72.86a.81.81,0,0,1-.64-.64,7.27,7.27,0,0,0-.23-.92.22.22,0,0,0-.23-.11A5.45,5.45,0,0,0,108,72c.12.86.15,1.15.12.86a1.71,1.71,0,0,1,0,.51l-.79.11a19.63,19.63,0,0,0-.54-4.15,1.7,1.7,0,0,1,.77-.25l0,.29a11.09,11.09,0,0,0,.37,1.69,10.76,10.76,0,0,0,1.83-.53,3.37,3.37,0,0,0,.06-1.17.82.82,0,0,1,.46-.93,26.33,26.33,0,0,1,.53,2.91Zm-.43,10.61a6.64,6.64,0,0,1,.1,1.88,11.1,11.1,0,0,0,0,2l-.64.09a2.33,2.33,0,0,0,0-.59,1.14,1.14,0,0,0-1.45-1.11,6.08,6.08,0,0,0-.89,1,2.16,2.16,0,0,1-.5-.45c0-.28.42-.82,1.36-1.6a13,13,0,0,1,2-1.46Zm-.74,1a6.43,6.43,0,0,1-.7.75l.66.06A2.63,2.63,0,0,1,109.84,84.44Zm5.33-12.56-.06.08c-.1,0-.34-.15-.72-.49a1.49,1.49,0,0,0-1.22-.42c-.14,0-.38.25-.71.68a4.35,4.35,0,0,0-.7.82l-.1-.79c-.07-.53.45-1.76,1.55-3.7a8,8,0,0,1,1,1.5,6.22,6.22,0,0,1,.84,1.75Zm-1.45-1.63a2.42,2.42,0,0,1-.46-.74l-.38,1A3,3,0,0,0,113.72,70.25Z"/></g><g class="cls-3"><path class="cls-2" d="M167.3,92.46l-12.43,5.12a17.61,17.61,0,0,0-3.47,1.26,4.29,4.29,0,0,1-.1-1.33,12.22,12.22,0,0,0,0-1.34,5,5,0,0,0-.19-.85c-1.86.58-2.81,1.7-2.83,3.36l-13.92,1c.14-.36.38-1.15.71-2.36a7.07,7.07,0,0,1-1.2,0,7,7,0,0,0-1.27,0,1.7,1.7,0,0,0-1,.43l-.11-.86q-.06-.44,4.41-19.58,4.06-17.2,4.91-20.73Q145.92,55,150,53.69c.55,2,.95,3,1.19,3a13.23,13.23,0,0,0,1.66-.66ZM163,89.6,149.35,55.08q-2.17.64-4.35,1.23c-2.24.68-3.46,1.2-3.65,1.57,0,.1-.65,2.8-1.85,8.1q-2.24,10.13-6.78,30.3l11.55-.72a17.64,17.64,0,0,0,.64-4,15.57,15.57,0,0,1,.82-4.29,3.48,3.48,0,0,1,2.9-2.28.36.36,0,0,1,.39.17l.22,1.65.26,8.11Zm-21.93-1.26,0,.81a1.1,1.1,0,0,1-.74-.6l-.56-1a6.65,6.65,0,0,0-1.66,1.24,1.08,1.08,0,0,0,.07.57,1.6,1.6,0,0,1,.21.48.53.53,0,0,1-.36.56,30.21,30.21,0,0,1-1.55-4l0-.21a2.13,2.13,0,0,1,.87,1c.26.52.41.78.46.78,1.38-.19,1.88-1.2,1.49-3A18.34,18.34,0,0,1,141.06,88.34Zm3.87-1a2.35,2.35,0,0,1-1.34-.77c-.37.44-1,1.1-1.77,2l-.33-1.41a19,19,0,0,1,1.09-3.27Zm1.62-18.7c-.34,0-.6-.14-.8-.55a7.7,7.7,0,0,1-.56-.94,10,10,0,0,0-1.79,1.32,1.65,1.65,0,0,1,.33.91v.51c-.25,0-.61-.53-1.08-1.54a8.7,8.7,0,0,1-.77-2,.54.54,0,0,1,.28-.61,7.85,7.85,0,0,1,1,1.76A7.86,7.86,0,0,0,145,66.35c-.23-.65-.34-.9-.32-.76a1.24,1.24,0,0,1,.45-1,14.21,14.21,0,0,0,.74,2A8.74,8.74,0,0,1,146.55,68.62ZM143.1,86.11l-.39-.75-.21.1.38.68ZM148.2,79c-.14.06-1.1.29-2.9.67l-.08-.64a59.06,59.06,0,0,1,1.33-5.93Q147.7,76.84,148.2,79Zm2.22-12.45-.15.53a3.25,3.25,0,0,1-.64-.46c-.33-.27-.54-.4-.64-.39a1.46,1.46,0,0,0-1,.68c-.29.4-.55.76-.8,1.08a14.72,14.72,0,0,1,.58-4.44,3.51,3.51,0,0,1,1.41,1.34C149.59,65.38,150,65.93,150.42,66.51Zm-1.86-.85a1.13,1.13,0,0,0-.46-.74,2.7,2.7,0,0,1,0,.48,2.59,2.59,0,0,0,0,.47Zm4.72,13.21a16.35,16.35,0,0,1-.74,4.32.68.68,0,0,1-.29-.54,3.94,3.94,0,0,1,0-.62,3,3,0,0,0,0-.62,6.68,6.68,0,0,0-1.82,0c-.24,0-.4.27-.49.72a2.53,2.53,0,0,1-.25.83l-.55-.29.69-4.17a3.49,3.49,0,0,1,.69.28c-.05.39-.16,1-.34,1.86a14.37,14.37,0,0,0,2.18-.07,6.5,6.5,0,0,1,.24-.94A1.1,1.1,0,0,1,153.28,78.87Zm3.74,4.6-.65.09c-.08-.28-.19-.7-.31-1.27a4.12,4.12,0,0,0-1.17-.06c-.19,0-.44.32-.76.9l-.64.08c-.05-.38.35-1.11,1.2-2.2a11.61,11.61,0,0,1,1.49-1.72.25.25,0,0,1,.32.25Zm-1.11-1.81-.12-.86-.56.72Z"/></g></g><g class="cls-3"><g class="cls-3"><path class="cls-2" d="M197.13,52.52c.07.53-.51,1.09-1.74,1.69a12.38,12.38,0,0,1-2.56,1l-9.68,2.22q-.22-1.12-.45-2.34c-.1-.37-.41-.53-.94-.46-.24,0-.87.16-1.91.4a2.53,2.53,0,0,0,0-1c-.09-.72-.26-1.82-.51-3.32s-.42-2.64-.52-3.42-.25-1.17-.44-1.15a8.68,8.68,0,0,0-1,.21c-.42.1-.75.17-1,.2l0,.14a35.46,35.46,0,0,0,1,4.56,35.06,35.06,0,0,1,1,4.56q-.56.22-6,1.66L162.6,60a7.83,7.83,0,0,1-.35-2.64.63.63,0,0,0-.6-.14,6.94,6.94,0,0,0-1,.24,7.31,7.31,0,0,1-1,.24l-.8-6.08q-2.76-21-2.51-31.25c0-.64.75-1.1,2.22-1.39q1.56-.27,3.06-.48a35.64,35.64,0,0,1,4.67-1.05l4.72-.62.11,1.37a2,2,0,0,0,.45,1.25l1.22-.16c.91-.12,1.38,0,1.43.32,1,6.76,1.45,9.91,1.38,9.43.22,1.67.57,2.47,1,2.41s.63-.18.6-.37a1.22,1.22,0,0,0-.3-.62q-.22-1.78-.77-5.36c-.37-2.37-.62-4.14-.77-5.28-.22-1.67.23-2.63,1.37-2.87l12-2.45.36,2.71a8.17,8.17,0,0,0,2.65-.34ZM193,50.59,187.89,16c-.53,0-1.18.08-1.94.18q-8.8,1.16-9.66,2.37c1.34,8.75,2,13.1,2,13.05a2.25,2.25,0,0,1,0,.58l-3.72.49a11.15,11.15,0,0,1-2-.17L170.09,18l-2.57.34-10.12,2.2,3,35.92,3.68-.85,7.5-2.15.93-.13a2.56,2.56,0,0,0,1.59-.64l-2-8.47a.73.73,0,0,1,.12-.75q6.15-1.38,5.79-1.34a1.44,1.44,0,0,1,1,.09l2,11.53,1.14-.15A40.1,40.1,0,0,0,193,50.59Zm-28.27-15.2-.65.08a4.93,4.93,0,0,0-.91-1.4c-.83.3-1.28.7-1.34,1.19s-.09,1-.12,1.55a9.55,9.55,0,0,1-1.85-4.13,1.05,1.05,0,0,1,.91.83,2,2,0,0,0,.49,1A13.51,13.51,0,0,1,163,33.37a.26.26,0,0,0,0-.22,1.2,1.2,0,0,0-.17-.49,1.18,1.18,0,0,1-.16-.42.94.94,0,0,1,.25-.83A40.44,40.44,0,0,1,164.75,35.39Zm3.56-1.71a2.23,2.23,0,0,1-1.28-.85c-.28.09-.61.42-1,1a7.32,7.32,0,0,1-.77,1l-.19-1.44a8.28,8.28,0,0,1,.27-1.56c.2-.9.31-1.42.34-1.57A6.32,6.32,0,0,1,168.31,33.68Zm-1.71-1.37a1.83,1.83,0,0,0-.45-.6,3.83,3.83,0,0,0,0,.95A1.66,1.66,0,0,0,166.6,32.31ZM179,35.77a16.22,16.22,0,0,1-1.69,3.79c-.14,0-.23-.09-.26-.33a2.84,2.84,0,0,1,.4-1.44,2.84,2.84,0,0,0-2-.38c-.14,0-.29.23-.43.63a1.59,1.59,0,0,1-.47.79l-.43-.45a5.64,5.64,0,0,0,.74-1.88,4.34,4.34,0,0,1,.94-2c.15,0,.24.16.27.4a2.53,2.53,0,0,1-.21.9,8.51,8.51,0,0,0-.28.91c.44,0,1.08.13,1.92.26a19.07,19.07,0,0,1,1.1-1.67A3.29,3.29,0,0,1,179,35.77Zm3.24-9.67a.81.81,0,0,1-.63-.64c-.07-.33-.15-.64-.23-.92a.22.22,0,0,0-.24-.11,5.42,5.42,0,0,0-1.92.83c.11.86.15,1.15.11.86a1.71,1.71,0,0,1,0,.51l-.78.1a20.43,20.43,0,0,0-.55-4.15,1.75,1.75,0,0,1,.77-.24l0,.28a9.05,9.05,0,0,0,.37,1.7,10.73,10.73,0,0,0,1.82-.53,3.14,3.14,0,0,0,.06-1.17.87.87,0,0,1,.46-.94A26.11,26.11,0,0,1,182,24.6Zm-.42,10.61a7,7,0,0,1,.1,1.88,11.1,11.1,0,0,0,0,2l-.65.08a2.81,2.81,0,0,0,0-.58,1.15,1.15,0,0,0-1.46-1.12,8.36,8.36,0,0,0-.89,1c-.32-.24-.49-.39-.49-.44,0-.29.41-.82,1.35-1.6a12.51,12.51,0,0,1,2-1.47Zm-.75,1a6.43,6.43,0,0,1-.7.75l.66.06A3.47,3.47,0,0,1,181.06,37.68Zm5.33-12.56-.06.08c-.1,0-.34-.15-.72-.49a1.48,1.48,0,0,0-1.22-.42c-.14,0-.38.24-.71.67a4.25,4.25,0,0,0-.69.82l-.11-.78c-.07-.53.45-1.76,1.55-3.7a7.19,7.19,0,0,1,1,1.5,6.5,6.5,0,0,1,.85,1.74Zm-1.45-1.63a2.42,2.42,0,0,1-.46-.74l-.38,1A2.54,2.54,0,0,0,184.94,23.49Z"/></g><g class="cls-3"><path class="cls-2" d="M238.52,45.69,226.1,50.82a17.61,17.61,0,0,0-3.48,1.26,4.63,4.63,0,0,1-.1-1.33,8.6,8.6,0,0,0,0-1.34,5,5,0,0,0-.19-.85q-2.79.87-2.83,3.35l-13.92,1c.15-.36.38-1.14.71-2.35a7.37,7.37,0,0,1-1.2,0,7.92,7.92,0,0,0-1.27,0,1.73,1.73,0,0,0-1,.42l-.11-.85q-.06-.43,4.41-19.58Q211.11,13.34,212,9.81q5.19-1.55,9.23-2.89c.56,2,.95,3,1.19,3A12.6,12.6,0,0,0,224,9.24Zm-4.3-2.85L220.57,8.32c-1.44.43-2.9.84-4.35,1.22-2.24.69-3.45,1.21-3.65,1.58,0,.1-.65,2.8-1.84,8.1q-2.23,10.13-6.79,30.3l11.55-.72a17.58,17.58,0,0,0,.65-4,15.27,15.27,0,0,1,.81-4.29,3.45,3.45,0,0,1,2.91-2.28.33.33,0,0,1,.38.17l.22,1.64.27,8.12Zm-21.93-1.26,0,.8a1.06,1.06,0,0,1-.74-.59c-.19-.34-.37-.67-.56-1A6.69,6.69,0,0,0,209.29,42a1.15,1.15,0,0,0,.08.58,2,2,0,0,1,.21.48c0,.24-.09.42-.37.56a29.39,29.39,0,0,1-1.54-4l0-.22a2.21,2.21,0,0,1,.86,1c.26.52.42.78.46.77q2.08-.27,1.5-3A19.37,19.37,0,0,1,212.29,41.58Zm3.87-1a2.32,2.32,0,0,1-1.34-.77c-.38.44-1,1.1-1.78,2l-.33-1.41a18.72,18.72,0,0,1,1.1-3.28Zm1.61-18.7c-.33,0-.6-.14-.8-.55a8,8,0,0,1-.56-.95,10.53,10.53,0,0,0-1.79,1.33,1.58,1.58,0,0,1,.34.9v.51q-.36,0-1.08-1.53a9.22,9.22,0,0,1-.77-2,.57.57,0,0,1,.28-.62,8.17,8.17,0,0,1,1,1.77,8.2,8.2,0,0,0,1.89-1.12c-.23-.65-.33-.91-.31-.76a1.17,1.17,0,0,1,.45-1,13.48,13.48,0,0,0,.73,2A8.74,8.74,0,0,1,217.77,21.86Zm-3.45,17.48-.39-.75-.2.1.38.68Zm5.1-7.15c-.13.07-1.1.3-2.89.68l-.09-.65a59.29,59.29,0,0,1,1.33-5.92Q218.93,30.08,219.42,32.19Zm2.22-12.44-.15.53a3.59,3.59,0,0,1-.64-.46q-.49-.42-.63-.39a1.47,1.47,0,0,0-1,.67c-.28.41-.55.77-.8,1.09a15.07,15.07,0,0,1,.58-4.44,3.45,3.45,0,0,1,1.41,1.34C220.81,18.62,221.23,19.17,221.64,19.75Zm-1.86-.85a1.07,1.07,0,0,0-.46-.74,2.59,2.59,0,0,1,0,.47,2.7,2.7,0,0,0,0,.48Zm4.73,13.21a16.34,16.34,0,0,1-.75,4.32.68.68,0,0,1-.29-.55,4.05,4.05,0,0,1,0-.61,3.9,3.9,0,0,0,0-.62,6.76,6.76,0,0,0-1.83,0c-.24,0-.4.27-.49.72a2.46,2.46,0,0,1-.25.83l-.55-.29.69-4.17a3.3,3.3,0,0,1,.69.27c0,.4-.16,1-.34,1.87a14.37,14.37,0,0,0,2.18-.07c.06-.3.14-.61.24-.94A1.09,1.09,0,0,1,224.51,32.11Zm3.73,4.6-.64.09c-.09-.28-.19-.71-.31-1.27a4.71,4.71,0,0,0-1.18-.07q-.29,0-.75.9l-.65.09c-.05-.38.35-1.12,1.21-2.2a11.28,11.28,0,0,1,1.48-1.72.25.25,0,0,1,.32.25Zm-1.11-1.82L227,34l-.56.73Z"/></g></g></g></g></svg>