<svg xmlns="http://www.w3.org/2000/svg" viewBox="0 0 98.12 111.89"><defs><style>.cls-1{fill:#d5ba33;}.cls-2{fill:#fed93e;}.cls-3{fill:#fefefe;}</style></defs><title>Asset 1</title><g id="Layer_2" data-name="Layer 2"><g id="Layer_1-2" data-name="Layer 1"><path class="cls-1" d="M95.29.12C79.87.22,64.46.17,49.05.17V0H47.26C32.34,0,17.43.12,2.51.11.47.1-.21.58.06,2.82.69,8,.94,13.31,1.38,18.56c1.06,12.57,2.07,25.15,3.2,37.71,1.27,14,2.7,28.08,3.92,42.13.16,1.92.74,2.71,2.59,3.22,11.57,3.19,23.1,6.5,34.64,9.81a10.71,10.71,0,0,0,6.12,0c11.34-3.28,22.67-6.57,34.08-9.6,2.86-.76,3.66-2.16,3.84-4.89.7-10.31,1.55-20.6,2.47-30.89q2.83-31.45,5.84-62.9C98.3.82,97.72.1,95.29.12Zm-52.55,87c-8.22-2.29-16.46-4.51-24.69-6.72A2.08,2.08,0,0,1,16.37,78c0-2.39,0-4.78-.13-7.16-.13-2,.64-2.4,2.45-1.87,4.57,1.33,9.19,2.49,13.74,3.86,2.26.68,3.17.6,3.14-2.29-.15-15.32,0-30.65-.09-46,0-2.32.56-3.07,3-3,6.43.27,6.44.16,6.44,6.47V54.92c0,5.07,0,10.16,0,15.23s0,10.14,0,15.22C44.91,87.16,44.47,87.58,42.74,87.1Zm46.36-75c-.61,6.69-1.15,13.39-1.76,20.07-.94,10.23-2,20.45-2.88,30.68-.48,5.21-.86,10.44-1.29,15.66q-.6,7.38-1.25,14.77A2.43,2.43,0,0,1,80,95.65c-9.63,2.66-19.24,5.4-28.88,8-2.4.66-2-1.24-2-2.54q0-15.21,0-30.43V56.4q0-11.11,0-22.22T49.11,12c0-2.3.56-3.08,3-3C63.52,9,75,9,86.39,8.89,89.07,8.85,89.3,10.06,89.1,12.12Z"/><path class="cls-2" d="M86.39,8.89C75,9,63.52,9,52.09,8.9c-2.42,0-3,.75-3,3q.07,11.11.06,22.23t0,22.22q0,7.17,0,14.32,0,15.23,0,30.43c0,1.3-.43,3.2,2,2.54,9.64-2.64,19.25-5.38,28.88-8a2.43,2.43,0,0,0,1.9-2.35q.66-7.38,1.25-14.77c.43-5.22.81-10.45,1.29-15.66.93-10.23,1.94-20.45,2.88-30.68.61-6.68,1.15-13.38,1.76-20.07C89.3,10.06,89.07,8.85,86.39,8.89ZM84.25,24.12c-.37,2.35-.56,4.73-.75,7.1-.13,1.71-.88,2.28-2.66,2.24-5.26-.14-10.53,0-15.8-.1-2,0-2.8.48-2.72,2.63.15,4.07.18,8.16,0,12.22-.13,2.54,1,2.74,3,2.48C70,50.07,74.78,49.61,79.49,49c2-.26,2.65.32,2.46,2.36q-1.26,13.79-2.34,27.59a2.16,2.16,0,0,1-1.83,2.28q-11.52,2.94-23,6c-1.41.37-2,.14-1.92-1.45a50.51,50.51,0,0,0,0-6.85c-.22-2.33.92-3.09,2.91-3.57,4.71-1.15,9.38-2.48,14.09-3.65,1.47-.36,2.2-1,2.16-2.62A33,33,0,0,1,72.36,64c.25-2-.23-2.92-2.56-2.42-4.64,1-9.36,1.68-14,2.68-2.45.53-3-.25-3-2.65.15-6.16.05-12.33.05-18.49S53,31,52.8,24.92c-.06-2.38.48-3.33,3.08-3.29,8.64.14,17.29.08,25.93,0C83.72,21.6,84.57,22.05,84.25,24.12Z"/><path class="cls-3" d="M44.86,54.93c0,10.15,0,20.3,0,30.44,0,1.79-.42,2.22-2.16,1.73C34.52,84.81,26.28,82.6,18,80.39A2.1,2.1,0,0,1,16.36,78c0-2.38,0-4.77-.12-7.16-.13-2,.63-2.39,2.44-1.87,4.57,1.34,9.19,2.49,13.75,3.86,2.26.68,3.17.61,3.14-2.29-.15-15.32,0-30.64-.1-46,0-2.32.56-3.08,3-3,6.43.27,6.43.17,6.43,6.48Z"/><path class="cls-3" d="M52.85,43.11c0-6.06.1-12.13-.06-18.19-.06-2.37.48-3.33,3.08-3.29,8.65.14,17.29.08,25.94,0,1.91,0,2.75.43,2.43,2.5-.36,2.35-.55,4.73-.74,7.1-.14,1.71-.88,2.29-2.66,2.24-5.27-.13-10.54,0-15.8-.09-2,0-2.81.48-2.73,2.63.16,4.07.19,8.15,0,12.22-.12,2.53,1,2.73,3,2.47C70,50.07,74.77,49.61,79.49,49c2-.27,2.65.32,2.46,2.35q-1.26,13.79-2.34,27.59a2.18,2.18,0,0,1-1.83,2.29q-11.52,2.92-23,6c-1.42.38-2,.14-1.93-1.44a47.6,47.6,0,0,0,0-6.86c-.21-2.33.93-3.09,2.91-3.57,4.72-1.14,9.39-2.48,14.1-3.65,1.47-.36,2.2-1,2.16-2.61a32.89,32.89,0,0,1,.35-5c.25-2-.23-2.93-2.56-2.42-4.65,1-9.36,1.68-14,2.68-2.46.53-3-.26-3-2.66C53,55.44,52.85,49.28,52.85,43.11Z"/></g></g></svg>