<svg xmlns="http://www.w3.org/2000/svg" viewBox="0 0 452.8 452.3"><defs><style>.cls-1,.cls-6{fill:#231f20;}.cls-1,.cls-4,.cls-5{stroke:#231f20;stroke-miterlimit:10;}.cls-2{fill:#f5f2bf;}.cls-3{fill:#ed1c24;}.cls-4{fill:#fff200;}.cls-5{fill:#00a651;}</style></defs><title>Asset 1</title><g id="Layer_2" data-name="Layer 2"><g id="Layer_1-2" data-name="Layer 1"><path class="cls-1" d="M424.25.5H28.56A28.06,28.06,0,0,0,.5,28.56v48.2H452.3V28.56A28.05,28.05,0,0,0,424.25.5ZM328.62,58.05a16.91,16.91,0,1,1,16.91-16.9A16.91,16.91,0,0,1,328.62,58.05Zm39,0a16.91,16.91,0,1,1,16.91-16.9A16.91,16.91,0,0,1,367.62,58.05Zm39,0a16.91,16.91,0,1,1,16.91-16.9A16.91,16.91,0,0,1,406.62,58.05Z"/><path class="cls-2" d="M452.3,76.76V424.24a28.05,28.05,0,0,1-28.05,28.06H28.56A28.06,28.06,0,0,1,.5,424.24V76.76Z"/><path class="cls-3" d="M423.53,41.15a16.91,16.91,0,1,1-16.91-16.91A16.91,16.91,0,0,1,423.53,41.15Z"/><path class="cls-4" d="M384.53,41.15a16.91,16.91,0,1,1-16.91-16.91A16.91,16.91,0,0,1,384.53,41.15Z"/><path class="cls-5" d="M345.53,41.15a16.91,16.91,0,1,1-16.91-16.91A16.91,16.91,0,0,1,345.53,41.15Z"/><path class="cls-6" d="M37.05,241.27,162.3,176.76v18.62L56.76,248.29v.54l105.54,52.9v18.63L37.05,255.85Z"/><path class="cls-6" d="M179.84,331.15l75.31-195.69H273.5L197.93,331.15Z"/><path class="cls-6" d="M415.75,256.12,290.51,320.36V301.73l106.34-52.9v-.54L290.51,195.38V176.76L415.75,241Z"/></g></g></svg>