<svg xmlns="http://www.w3.org/2000/svg" viewBox="0 0 185.28 191.41"><defs><style>.cls-1{fill:#e6e7e8;}</style></defs><title>Asset 1</title><g id="Layer_2" data-name="Layer 2"><g id="Layer_1-2" data-name="Layer 1"><path class="cls-1" d="M132.22,72q-13.78,18-27.6,36c-2.4,3.11-4.89,6.14-7.42,9.13s-4.9,2.94-7.42-.09Q72.08,95.66,54.41,74.28c-.88-1-1.8-2.08-2.57-3.2-1.27-1.86-.77-3,1.46-3.06,3.61-.13,7.22-.09,10.83-.11,2.93,0,5.86-.09,8.78,0,1.51.07,1.83-.41,1.82-1.85,0-15.45,0-30.9,0-46.35,0-5.23.09-10.46,0-15.69-.05-2,.47-3.3,2.29-4h32.15c1.68.78,2.11,2.16,2.1,3.93,0,20.25,0,40.49-.06,60.74,0,1.55.36,2,1.92,1.92,5.54-.11,11.09-.08,16.63,0,1.51,0,3.38-.32,4.17,1.35S133.14,70.77,132.22,72Z"/><path class="cls-1" d="M185.28,123.72c-.07,17.94,0,35.88-.05,53.82,0,8.5-5.43,13.86-13.92,13.86H13.78c-6.72,0-11.49-3.49-13.23-9.62A15.54,15.54,0,0,1,0,177.54c0-17.94,0-35.88,0-53.82,0-1.34.25-1.82,1.72-1.81,7.47.09,15,.08,22.42,0,1.31,0,1.65.34,1.65,1.65-.05,13.39,0,26.78-.07,40.18,0,1.49.27,2,1.89,2q65-.08,130.05,0c1.6,0,1.91-.43,1.9-2-.06-13.33,0-26.66-.07-40,0-1.45.33-1.87,1.83-1.86,7.35.09,14.7.07,22.05,0C184.75,121.91,185.28,122.15,185.28,123.72Z"/></g></g></svg>