<svg xmlns="http://www.w3.org/2000/svg" viewBox="0 0 380.58 380.57"><defs><style>.cls-1{fill:#b5f098;}.cls-2{fill:#edc17b;}.cls-3{fill:#802e9e;}.cls-4{fill:none;stroke:#c92020;stroke-miterlimit:10;stroke-width:3px;}</style></defs><title>FaceRecognition</title><g id="Layer_2" data-name="Layer 2"><g id="Layer_1-2" data-name="Layer 1"><path class="cls-1" d="M380.58,23.74V356.83a23.74,23.74,0,0,1-23.74,23.74H23.75A23.74,23.74,0,0,1,0,356.83V23.74A23.74,23.74,0,0,1,23.75,0H356.84A23.74,23.74,0,0,1,380.58,23.74Z"/><path class="cls-2" d="M267.63,113.67c0,23.2-8.2,44.25-21.52,59.76a133,133,0,0,0-111.63,0C121.15,157.92,113,136.87,113,113.67,113,66,147.58,27.34,190.3,27.34S267.63,66,267.63,113.67Z"/><path class="cls-3" d="M332.38,327.7a178.15,178.15,0,0,1-7.94,52.87H56.14a178.15,178.15,0,0,1-7.93-52.87c0-88.41,63.61-160.08,142.08-160.08S332.38,239.29,332.38,327.7Z"/><rect class="cls-4" x="115.11" y="32.37" width="150.36" height="146.04"/></g></g></svg>