<svg xmlns="http://www.w3.org/2000/svg" viewBox="0 0 546.76 546.76"><defs><style>.cls-1{fill:#b5f098;}.cls-2{fill:#9641ff;}.cls-3{fill:#6735af;}.cls-4{fill:#fff;}.cls-5{fill:#2a1942;}.cls-6{fill:#a382d1;}.cls-7{fill:#643aa0;}</style></defs><title>RoboFriends</title><g id="Layer_2" data-name="Layer 2"><g id="Layer_1-2" data-name="Layer 1"><rect class="cls-1" width="546.76" height="546.76" rx="27.34"/><g id="Layer_2-2" data-name="Layer 2-2"><g id="Layer_1-2-2" data-name="Layer 1-2-2"><path class="cls-2" d="M338.54,172.66c-62.67,0-113.48,43.37-113.48,96.87,0,1.54,0,3.08.14,4.62h0c1.51,27.2,16.17,51.39,38.63,68.18,20,14.92,46.1,24,74.71,24,28.35,0,54.26-8.87,74.14-23.53,22.8-16.81,37.68-41.23,39.2-68.64h0c.09-1.51.14-3.07.14-4.62C452,216,401.23,172.66,338.54,172.66Zm-2,159.64c-12.95,0-23.43-4.72-23.43-10.52s10.49-10.5,23.43-10.5S360,316,360,321.74s-10.49,10.58-23.42,10.58ZM339,278.14c-50,0-91.66-4.21-91.66-32.78s40.53-51.71,90.5-51.71,90.55,23.11,90.55,51.71S389,278.14,339,278.14Z"/><path class="cls-3" d="M360,321.74c0,5.78-10.49,10.52-23.43,10.52s-23.43-4.68-23.43-10.52,10.49-10.51,23.43-10.51S360,316,360,321.74Z"/><path class="cls-4" d="M258,347.05q-1.72-1.51-3.47-3.09A18.2,18.2,0,0,1,258,347.05Z"/><path class="cls-4" d="M422.48,344c-.69.65-1.38,1.27-2.1,1.91A18.1,18.1,0,0,1,422.48,344Z"/><path class="cls-2" d="M464.31,453.77c-5.24-28.72-13.77-54.61-25.59-76.09a18.14,18.14,0,0,1-4.46.53,19.11,19.11,0,0,1-16-29.58l-.44-.48c-20.45,17-48.41,27.55-79.26,27.55-31.2,0-59.52-10.77-80-28.2l-.07.07a19.14,19.14,0,0,1-23,29.4c-23.66,38.43-36.6,91.16-36.6,149.43q0,10.29.54,20.36H470.18q.4-9.62.41-19.47A409.93,409.93,0,0,0,464.31,453.77Zm-41.52-12.33c-2.73,14.79-14.53,24.55-79.49,59.87-25.27,13.74-56,23.9-71.65,31.89,13-11,36.46-26,35.33-44.16-.81-13.06-14.61-28.89-26.5-44.65-17.71-23.43-.12-55.24,25-53,27.48,2.45,35,11.26,44.16,29.47,9.25-20.92,29.13-32.13,45.64-28.47,20.42,4.46,30.88,30.69,27.48,49Z"/><path class="cls-5" d="M262.78,359.64a19.13,19.13,0,0,1-38.25,0,10.92,10.92,0,0,1,.08-1.51A19.13,19.13,0,0,1,254.55,344h0c1.15,1.05,2.31,2.08,3.46,3.09a6.4,6.4,0,0,1,.42.49A19,19,0,0,1,262.78,359.64Z"/><path class="cls-4" d="M258,347.05q-1.72-1.51-3.47-3.09A18.2,18.2,0,0,1,258,347.05Z"/><path class="cls-5" d="M162.41,452.94a17.86,17.86,0,0,1-.43,4,19.12,19.12,0,0,1-37.79-4,18.69,18.69,0,0,1,1.38-7.12,19.11,19.11,0,0,1,17.66-12,21.29,21.29,0,0,1,5,.65A19.13,19.13,0,0,1,162.41,452.94Z"/><path class="cls-5" d="M453.37,359.05a15.11,15.11,0,0,1-.11,2h0a19.06,19.06,0,0,1-10,14.85,17.68,17.68,0,0,1-4.54,1.71,18.64,18.64,0,0,1-4.46.54,19.11,19.11,0,0,1-16-29.57,17.57,17.57,0,0,1,2.11-2.67h0c.71-.65,1.4-1.26,2.1-1.91h0a19.12,19.12,0,0,1,30.86,15Z"/><path class="cls-4" d="M422.48,344c-.69.65-1.38,1.27-2.1,1.91A18.1,18.1,0,0,1,422.48,344Z"/><path class="cls-2" d="M162,457a18,18,0,0,0,.43-4,19.11,19.11,0,0,0-14.17-18.48l76.37-76.33c0,.5-.08,1-.08,1.51a19.13,19.13,0,0,0,5.79,13.74Z"/><path class="cls-2" d="M145.55,434a17.92,17.92,0,0,0-2.31-.15,19.09,19.09,0,0,0-17.75,12L87,333.8a29.51,29.51,0,0,0,15.82-.27,28.93,28.93,0,0,0,9.63-5Z"/><path class="cls-5" d="M504.72,449.34a19.12,19.12,0,1,1-38.24,0,18.86,18.86,0,0,1,3-10.34h0a19.13,19.13,0,0,1,16.09-8.78h.91A19.14,19.14,0,0,1,504.72,449.34Z"/><path class="cls-2" d="M486.46,430.24h-.92A19.1,19.1,0,0,0,469.47,439l-26.2-63.1a19.08,19.08,0,0,0,10-14.85Z"/><path class="cls-2" d="M508.63,546.72h-21.3l-5.61-78.65a19.14,19.14,0,0,0,15.11-3.27Z"/><path class="cls-2" d="M111,324.11a29.29,29.29,0,0,1-25.65,5c-12.1-3.23-22.77-13.61-27.14-28a1.19,1.19,0,0,0-.1-.28c-1.88-6.3-1.8-11-.29-14.68,3.47-8.44,14.61-11.25,27-14.94,11.45-3.47,21.22-6.8,28.39-3.16h0c4,2,7.12,6.13,9.33,13.55q.63,2.13,1,4.32C126.6,301.19,121.46,316.08,111,324.11Z"/><path class="cls-2" d="M66.9,275.41l-2.84,1.15a3.69,3.69,0,0,1-4.83-2h0l-4.69-11.28a3.7,3.7,0,0,1,2-4.83h0l2.84-1.15a3.69,3.69,0,0,1,4.8,2l4.69,11.29A3.69,3.69,0,0,1,66.9,275.41Z"/><path class="cls-2" d="M130.38,259.64,123,269.36a3.69,3.69,0,0,1-5.17.72h0l-2.46-1.88a3.69,3.69,0,0,1-.71-5.16h0l7.45-9.75a3.7,3.7,0,0,1,5.18-.69l2.44,1.87a3.66,3.66,0,0,1,.72,5.14h0Z"/><path class="cls-2" d="M138.17,236.86l-2.62,11.94a3.7,3.7,0,0,1-4.41,2.8l-3-.66a3.68,3.68,0,0,1-2.81-4.38h0l2.63-12a3.71,3.71,0,0,1,4.4-2.82l3,.65a3.7,3.7,0,0,1,2.82,4.41Z"/><path class="cls-2" d="M58.81,255.76,56,256.91a3.69,3.69,0,0,1-4.83-2h0l-4.65-11.27a3.69,3.69,0,0,1,2-4.82h0l2.84-1.16a3.71,3.71,0,0,1,4.81,2L60.81,251A3.7,3.7,0,0,1,58.81,255.76Z"/><path class="cls-2" d="M50.72,236.11l-2.84,1.15a3.69,3.69,0,0,1-4.83-2h0L38.42,224a3.69,3.69,0,0,1,2-4.83h0L43.24,218a3.69,3.69,0,0,1,4.8,2l4.68,11.29A3.69,3.69,0,0,1,50.72,236.11Z"/><path class="cls-2" d="M78.84,271.21l-3,.92a3.69,3.69,0,0,1-4.62-2.42L67.6,258A3.69,3.69,0,0,1,70,253.41l2.94-.93a3.69,3.69,0,0,1,4.61,2.43l3.68,11.68A3.7,3.7,0,0,1,78.84,271.21Z"/><path class="cls-2" d="M71.9,251.57l-3,.92a3.68,3.68,0,0,1-4.61-2.42l-3.67-11.69a3.7,3.7,0,0,1,2.43-4.63l2.93-.92a3.7,3.7,0,0,1,4.62,2.42l3.65,11.67a3.69,3.69,0,0,1-2.4,4.65Z"/><path class="cls-2" d="M65,231.92l-2.95.92a3.69,3.69,0,0,1-4.62-2.42l-3.67-11.66a3.7,3.7,0,0,1,2.44-4.62l2.93-.92a3.68,3.68,0,0,1,4.62,2.42l3.65,11.66A3.68,3.68,0,0,1,65,231.92Z"/><path class="cls-2" d="M92.63,266.63l-2.95.89a3.69,3.69,0,0,1-4.61-2.45l-3.56-11.7A3.69,3.69,0,0,1,84,248.75h0l2.94-.9a3.7,3.7,0,0,1,4.62,2.46h0L95.08,262a3.69,3.69,0,0,1-2.43,4.62h0Z"/><path class="cls-2" d="M86.86,247l-3,.9a3.72,3.72,0,0,1-4.63-2.46l-3.55-11.69a3.71,3.71,0,0,1,2.45-4.63h0l2.95-.9a3.7,3.7,0,0,1,4.62,2.45h0l3.56,11.7A3.7,3.7,0,0,1,86.87,247Z"/><path class="cls-2" d="M81.08,227.33l-3,.9a3.7,3.7,0,0,1-4.62-2.45l-3.59-11.7a3.7,3.7,0,0,1,2.45-4.62h0l2.95-.91A3.7,3.7,0,0,1,79.94,211h0l3.58,11.7a3.68,3.68,0,0,1-2.42,4.61h0Z"/><path class="cls-2" d="M105.51,264.23l-2.93,1A3.69,3.69,0,0,1,98,262.81l-3.85-11.59a3.68,3.68,0,0,1,2.37-4.62l2.93-.95A3.7,3.7,0,0,1,104,248l3.77,11.53a3.68,3.68,0,0,1-2.35,4.66Z"/><path class="cls-2" d="M98.84,245l-3,.65a3.7,3.7,0,0,1-4.41-2.81h0l-2.58-12a3.69,3.69,0,0,1,2.81-4.41h0l3-.66a3.71,3.71,0,0,1,4.4,2.82l2.6,12A3.72,3.72,0,0,1,98.84,245Z"/><path class="cls-2" d="M93.81,224.33l-3,.53a3.71,3.71,0,0,1-4.29-3h0l-2.1-12a3.71,3.71,0,0,1,3-4.28h0l3-.52a3.68,3.68,0,0,1,4.26,3v0h0l2.1,12a3.7,3.7,0,0,1-3,4.29Z"/><path class="cls-6" d="M422.79,441.4c-2.73,14.79-14.53,24.55-79.49,59.87-25.27,13.74-56,23.9-71.65,31.9,13-11,36.46-26,35.33-44.17-.81-13.06-14.61-28.89-26.5-44.65-17.71-23.43-.12-55.24,25-53,27.48,2.45,35,11.27,44.16,29.47,9.25-20.92,29.13-32.12,45.64-28.47C415.73,396.85,426.19,423.08,422.79,441.4Z"/><path class="cls-7" d="M337.86,193.65c-50,0-90.51,23.11-90.51,51.71S289,278.14,339,278.14s89.37-4.24,89.37-32.78S387.85,193.65,337.86,193.65Zm-45.43,57A11.72,11.72,0,1,1,304.15,239h0a11.72,11.72,0,0,1-11.71,11.72Zm86.67,0A11.72,11.72,0,1,1,390.82,239h0A11.73,11.73,0,0,1,379.1,250.68Z"/><circle class="cls-6" cx="292.43" cy="238.96" r="11.71"/><circle class="cls-6" cx="379.11" cy="238.96" r="11.71"/></g></g></g></g></svg>